<?xml version="1.0" standalone="no"?><!DOCTYPE svg PUBLIC "-//W3C//DTD SVG 1.1//EN" "http://www.w3.org/Graphics/SVG/1.1/DTD/svg11.dtd"><svg t="1656299892414" class="icon" viewBox="0 0 1024 1024" version="1.1" xmlns="http://www.w3.org/2000/svg" p-id="2282" width="512" height="512" xmlns:xlink="http://www.w3.org/1999/xlink"><defs><style type="text/css">@font-face { font-family: "feedback-iconfont"; src: url("//at.alicdn.com/t/font_1031158_u69w8yhxdu.woff2?t=1630033759944") format("woff2"), url("//at.alicdn.com/t/font_1031158_u69w8yhxdu.woff?t=1630033759944") format("woff"), url("//at.alicdn.com/t/font_1031158_u69w8yhxdu.ttf?t=1630033759944") format("truetype"); }
</style></defs><path d="M384 725.333333l42.666667 0 0-42.666667-42.666667 0L384 725.333333zM213.333333 640l341.333333 0L554.666667 341.333333 213.333333 341.333333 213.333333 640zM256 384l256 0 0 213.333333L256 597.333333 256 384zM298.666667 725.333333l42.666667 0 0-42.666667-42.666667 0L298.666667 725.333333zM597.333333 640l42.666667 0 0-42.666667-42.666667 0L597.333333 640zM448 896l128 0c12.8 0 21.333333-8.533333 21.333333-21.333333 0-12.8-8.533333-21.333333-21.333333-21.333333l-128 0c-12.8 0-21.333333 8.533333-21.333333 21.333333C426.666667 887.466667 435.2 896 448 896zM213.333333 725.333333l42.666667 0 0-42.666667-42.666667 0L213.333333 725.333333zM768 640l42.666667 0 0-42.666667-42.666667 0L768 640zM768 554.666667l42.666667 0 0-42.666667-42.666667 0L768 554.666667zM768 469.333333l42.666667 0 0-42.666667-42.666667 0L768 469.333333zM597.333333 384l213.333333 0 0-42.666667L597.333333 341.333333 597.333333 384zM853.333333 256l-149.333333 0L704 170.666667l64 0c23.466667 0 42.666667-19.2 42.666667-42.666667L810.666667 85.333333c0-23.466667-19.2-42.666667-42.666667-42.666667l-170.666667 0-42.666667 0-42.666667 0c-23.466667 0-42.666667 19.2-42.666667 42.666667l0 42.666667c0 23.466667 19.2 42.666667 42.666667 42.666667l42.666667 0 21.333333 0 0 85.333333L170.666667 256c-23.466667 0-42.666667 19.2-42.666667 42.666667l0 512 0 128c0 23.466667 19.2 42.666667 42.666667 42.666667l682.666667 0c23.466667 0 42.666667-19.2 42.666667-42.666667L896 298.666667C896 275.2 876.8 256 853.333333 256zM554.666667 128l-42.666667 0L512 85.333333l42.666667 0L554.666667 128zM597.333333 85.333333l170.666667 0 0 42.666667-64 0-106.666667 0L597.333333 85.333333zM661.333333 170.666667l0 85.333333-42.666667 0L618.666667 170.666667 661.333333 170.666667zM853.333333 938.666667 170.666667 938.666667l0-128 682.666667 0L853.333333 938.666667zM853.333333 768 170.666667 768 170.666667 298.666667l405.333333 0 128 0 149.333333 0L853.333333 768zM682.666667 640l42.666667 0 0-42.666667-42.666667 0L682.666667 640zM597.333333 469.333333l42.666667 0 0-42.666667-42.666667 0L597.333333 469.333333zM725.333333 426.666667l-42.666667 0 0 42.666667 42.666667 0L725.333333 426.666667zM682.666667 725.333333l128 0 0-42.666667-128 0L682.666667 725.333333zM597.333333 554.666667l42.666667 0 0-42.666667-42.666667 0L597.333333 554.666667zM682.666667 554.666667l42.666667 0 0-42.666667-42.666667 0L682.666667 554.666667z" p-id="2283" fill="#00acac"></path></svg>