<svg t="1648977370983" class="icon" viewBox="0 0 1024 1024" version="1.1" xmlns="http://www.w3.org/2000/svg" p-id="4947" width="512" height="512"><path d="M125.114182 180.037818v497.431273h773.818182V179.991273H125.114182z m414.533818 552.727273v110.498909h165.794909a27.648 27.648 0 1 1 0 55.296H318.557091a27.648 27.648 0 1 1 0-55.296h165.794909v-110.545455H125.114182A55.296 55.296 0 0 1 69.818182 677.515636V179.991273c0-30.487273 24.762182-55.249455 55.296-55.249455h773.818182c30.487273 0 55.249455 24.762182 55.249454 55.296v497.431273c0 30.533818-24.762182 55.296-55.296 55.296h-359.237818z m-27.136-395.496727l38.586182-38.632728a27.648 27.648 0 1 1 39.098182 39.098182l-28.392728 28.346182h19.269819a27.648 27.648 0 1 1 0 55.249455h-41.425455v27.648h41.425455a27.648 27.648 0 1 1 0 55.296h-41.425455v27.601454a27.648 27.648 0 1 1-55.296 0v-27.601454h-41.425455a27.648 27.648 0 0 1 0-55.296h41.425455v-27.648h-41.425455a27.648 27.648 0 0 1 0-55.249455h20.200728l-28.299637-28.346182a27.648 27.648 0 1 1 39.098182-39.098182l38.586182 38.632728z" fill="#4d4d4d" p-id="4948"></path></svg>